<?xml version="1.0" encoding="UTF-8"?>
<svg id="a" xmlns="http://www.w3.org/2000/svg" version="1.1" viewBox="0 0 147.2 149.9">
  <!-- Generator: Adobe Illustrator 29.2.1, SVG Export Plug-In . SVG Version: 2.1.0 Build 116)  -->
  <defs>
    <style>
      .st0 {
        fill: #99a809;
      }

      .st1 {
        fill: #fff;
      }

      .st2 {
        fill: #ffe1e5;
      }

      .st3 {
        fill: #c69c6d;
      }

      .st4 {
        fill: #494646;
      }

      .st5 {
        fill: #202020;
        stroke: #000;
        stroke-miterlimit: 10;
        stroke-width: .5px;
      }

      .st6 {
        fill: #abc609;
      }

      .st7 {
        fill: lime;
      }

      .st8 {
        fill: #754c24;
      }
    </style>
  </defs>
  <rect class="st3" x="31" y="44.8" width="85" height="83.2"/>
  <rect class="st0" x="23" y="54" width="8" height="64.2"/>
  <rect class="st0" x="116" y="56" width="8" height="62"/>
  <rect class="st0" x="52" y="136.6" width="43" height="7.5"/>
  <rect class="st0" x="40.5" y="37.1" width="13" height="7.9"/>
  <rect class="st0" x="92.9" y="37" width="13.1" height="7.9"/>
  <rect class="st0" x="31" y="118" width="10" height="10"/>
  <rect class="st0" x="41" y="128" width="11" height="9"/>
  <rect class="st0" x="30.5" y="44.4" width="10" height="10"/>
  <rect class="st0" x="105.6" y="44.7" width="10.4" height="10.3"/>
  <rect class="st0" x="106" y="118" width="10" height="10"/>
  <rect class="st0" x="95" y="128" width="11" height="9"/>
  <rect class="st3" x="52" y="125.7" width="43" height="11.3"/>
  <rect id="b" class="st2" x="42.3" y="60" width="61.7" height="47" rx="15.6" ry="15.6"/>
  <rect id="c" class="st2" x="59.4" y="97" width="27.6" height="33.8" rx="8.2" ry="8.2"/>
  <rect id="d" class="st5" x="69.3" y="114" width="8.5" height="8.5" rx="1.8" ry="1.8"/>
  <rect id="e" class="st4" x="63.9" y="88.1" width="7.1" height="6.4" rx="3.2" ry="3.2"/>
  <rect id="f" class="st4" x="75.9" y="88.1" width="7.1" height="6.4" rx="3.2" ry="3.2"/>
  <g id="g">
    <rect class="st7" x="79.7" y="64.6" width="11" height="11"/>
    <rect class="st7" x="56.5" y="64.6" width="11" height="11"/>
    <rect class="st1" x="56.5" y="53.6" width="11" height="11"/>
    <rect class="st1" x="79.7" y="53.6" width="11" height="11"/>
  </g>
  <g id="h">
    <rect class="st3" x="7.1" y="70.9" width="15.9" height="32.3"/>
    <rect class="st6" x="14.9" y="103.2" width="8.1" height="7.7"/>
    <rect class="st6" x="7.1" y="95.2" width="7.9" height="7.9"/>
    <rect class="st6" x="15" y="63" width="8" height="7.9"/>
    <rect class="st2" x="13" y="82" width="9" height="9" rx="2.8" ry="2.8"/>
    <rect class="st6" x="7.1" y="70.8" width="7.9" height="7.9"/>
    <rect class="st6" x="1" y="78.7" width="6.1" height="16.6"/>
  </g>
  <g id="i">
    <rect class="st3" x="124" y="70.8" width="15.9" height="32.3"/>
    <rect class="st6" x="124" y="103.1" width="8" height="7.7"/>
    <rect class="st6" x="132" y="95.3" width="7.9" height="7.9"/>
    <rect class="st6" x="124" y="63" width="8" height="7.9"/>
    <rect class="st2" x="125" y="83" width="9" height="9" rx="3.1" ry="3.1"/>
    <rect class="st6" x="132" y="70.9" width="7.9" height="7.9"/>
    <rect class="st6" x="139.9" y="78.7" width="6.1" height="16.6"/>
  </g>
  <g id="j">
    <path class="st8" d="M89.4,37h-36S89.4,4,89.4,5v32Z"/>
    <rect class="st6" x="82.8" y="5" width="5.8" height="5.5"/>
    <rect class="st6" x="76.9" y="10.5" width="5.8" height="5.3"/>
    <rect class="st6" x="71" y="15.8" width="5.8" height="5.3"/>
    <rect class="st6" x="65.2" y="21.1" width="5.8" height="5.3"/>
    <rect class="st6" x="59.3" y="26.4" width="5.8" height="5.3"/>
    <rect class="st6" x="53.5" y="31.7" width="5.8" height="5.3"/>
    <rect class="st6" x="88" y="5" width="5" height="32"/>
  </g>
  <rect class="st3" x="87" y="37" width="6" height="9.1"/>
  <rect class="st3" x="53.5" y="37" width="30.5" height="9.1"/>
  <rect class="st8" x="84" y="36" width="4" height="9"/>
  <rect class="st8" x="80" y="36" width="4" height="6"/>
  <rect class="st8" x="76" y="34" width="4" height="5"/>
</svg>