<?xml version="1.0" encoding="UTF-8"?><svg id="a" xmlns="http://www.w3.org/2000/svg" xmlns:xlink="http://www.w3.org/1999/xlink" viewBox="0 0 62.06 70.4"><defs><style>.d{fill:#fff;}.e{fill:url(#c);}.f{fill:#f9f9f9;}</style><radialGradient id="c" cx="38.36" cy="2.43" fx="38.36" fy="2.43" r="2.5" gradientUnits="userSpaceOnUse"><stop offset="0" stop-color="#fff"/><stop offset="0" stop-color="#fffef5"/><stop offset="0" stop-color="#fffcc7"/><stop offset="0" stop-color="#fff99c"/><stop offset="0" stop-color="#fff877"/><stop offset="0" stop-color="#fff656"/><stop offset="0" stop-color="#fff53b"/><stop offset="0" stop-color="#fff325"/><stop offset="0" stop-color="#fff314"/><stop offset="0" stop-color="#fff208"/><stop offset="0" stop-color="#fff201"/><stop offset="0" stop-color="#fff200"/><stop offset=".06" stop-color="#ffd902"/><stop offset=".19" stop-color="#ffa507"/><stop offset=".33" stop-color="#ff790b"/><stop offset=".46" stop-color="#ff550e"/><stop offset=".6" stop-color="#ff3911"/><stop offset=".73" stop-color="#ff2513"/><stop offset=".87" stop-color="#ff1814"/><stop offset="1" stop-color="#ff1515"/></radialGradient></defs><ellipse cx="31.03" cy="40.75" rx="31.03" ry="29.65"/><g id="b"><path class="d" d="M14.29,46.22v-1.58h-1.73v-1.58h3.47v1.58h5.2v-3.16h-6.93v-1.58h-1.73v-3.16h1.73v-1.58h8.66v1.58h1.73v1.58h-3.47v-1.58h-5.2v3.16h6.93v1.58h1.73v3.16h-1.73v1.58h-8.66Z"/><path class="d" d="M26.42,46.22v-11.06h12.13v1.58h-8.66v3.16h6.93v1.58h-6.93v3.16h8.66v1.58h-12.13Z"/><path class="d" d="M43.75,46.22v-1.58h-1.73v-1.58h-1.73v-4.74h1.73v-1.58h1.73v-1.58h6.93v1.58h1.73v1.58h-3.47v-1.58h-3.47v1.58h-1.73v4.74h1.73v1.58h3.47v-1.58h3.47v1.58h-1.73v1.58h-6.93Z"/></g><rect x="34.89" y="1.13" width="1.17" height="13" transform="translate(7.13 -15.02) rotate(26.49)"/><path class="e" d="M40.78,2.88l-1.69.22-.27,1.62c-.03.16-.23.19-.31.05l-.8-1.49-1.71.22c-.16.02-.25-.18-.13-.29l1.21-1.12-.78-1.46c-.08-.14.08-.3.22-.23l1.55.77,1.24-1.15c.12-.11.3,0,.28.15l-.27,1.62,1.53.76c.15.07.11.29-.05.31Z"/><rect x="28.9" y="10.09" width="10" height="6" rx="1.63" ry="1.63"/><path class="f" d="M12.47,20.96c4.09-3.66,12.73-5.49,12.7-5.46s-7.08,2.89-11.17,6.56c-4.09,3.66-7.8,10.56-7.84,11.03s2.22-8.45,6.31-12.12Z"/></svg>