<?xml version="1.0" encoding="UTF-8"?><svg id="a" xmlns="http://www.w3.org/2000/svg" xmlns:xlink="http://www.w3.org/1999/xlink" viewBox="0 0 65.1 73.9"><defs><style>.c{fill:#ff3b15;}.c,.d,.e{stroke:#000;stroke-miterlimit:10;}.c,.e{stroke-width:.4px;}.d,.e{fill:#ff0015;}.f{fill:#fff;font-family:PressStart2P-Regular, 'Press Start 2P';font-size:20px;}.g{fill:#f9f9f9;}.h{fill:url(#b);}.i{fill:#fc0606;}</style><radialGradient id="b" cx="37" cy="-5.1" fx="37" fy="-5.1" r="2.5" gradientTransform="translate(7 -6) rotate(19.3) scale(1.1 1.1) skewX(1.3)" gradientUnits="userSpaceOnUse"><stop offset="0" stop-color="#fff"/><stop offset="0" stop-color="#fffef5"/><stop offset="0" stop-color="#fffcc7"/><stop offset="0" stop-color="#fff99c"/><stop offset="0" stop-color="#fff877"/><stop offset="0" stop-color="#fff656"/><stop offset="0" stop-color="#fff53b"/><stop offset="0" stop-color="#fff325"/><stop offset="0" stop-color="#fff314"/><stop offset="0" stop-color="#fff208"/><stop offset="0" stop-color="#fff201"/><stop offset="0" stop-color="#fff200"/><stop offset="0" stop-color="#ffd902"/><stop offset=".2" stop-color="#ffa507"/><stop offset=".3" stop-color="#ff790b"/><stop offset=".5" stop-color="#ff550e"/><stop offset=".6" stop-color="#ff3911"/><stop offset=".7" stop-color="#ff2513"/><stop offset=".9" stop-color="#ff1814"/><stop offset="1" stop-color="#ff1515"/></radialGradient></defs><polygon class="i" points="48.7 2.9 48.1 2.3 41.2 9.1 41.8 9.8 48.7 2.9"/><rect class="c" x="39.4" y="6.7" width="7.5" height="4.5" rx="1.6" ry="1.6" transform="translate(5.1 -13.3) rotate(18.7)"/><rect class="e" x="35.7" y="8" width="13" height="4" rx="1.6" ry="1.6" transform="translate(5.4 -13) rotate(18.7)"/><ellipse class="d" cx="32.6" cy="41" rx="32.5" ry="32" transform="translate(-16.7 58.7) rotate(-71.3)"/><path class="h" d="M51,4.2l-1.9-.4-.8,1.6c0,.1-.3.1-.3,0l-.4-1.9-2-.4c-.2,0-.2-.3,0-.3l1.7-.7-.4-1.8c0-.2.2-.3.3-.2l1.5,1.4,1.8-.7c.1,0,.3,0,.2.2l-.8,1.6,1.4,1.4c.1.1,0,.3-.2.3Z"/><text class="f" transform="translate(4.6 51.8)"><tspan x="0" y="0">NFT</tspan></text><path class="g" d="M22.4,70.6c-5.2-1.8-10.9-8.6-10.9-8.5s5.9,4.8,11.1,6.7c5.2,1.8,13,1.8,13.4,1.6s-8.5,2.1-13.7.3Z"/></svg>