<?xml version="1.0" encoding="UTF-8"?><svg id="a" xmlns="http://www.w3.org/2000/svg" viewBox="0 0 25 25"><defs><style>.d{fill:#4a9951;}.e{fill:#cfff03;}.f{fill:#e3fd7c;}.g{fill:#3a9147;}.h{fill:#5ece71;fill-rule:evenodd;}</style></defs><path class="e" d="M12.5,24.5C5.9,24.5.5,19.1.5,12.5S5.9.5,12.5.5s12,5.4,12,12-5.4,12-12,12Z"/><path class="g" d="M12.5.9c6.4,0,11.6,5.2,11.6,11.6s-5.2,11.6-11.6,11.6S.9,18.9.9,12.5,6.1.9,12.5.9M12.5,0C5.6,0,0,5.6,0,12.5s5.6,12.5,12.5,12.5,12.5-5.6,12.5-12.5S19.4,0,12.5,0h0Z"/><path class="f" d="M12.5,22.8c-5.7,0-10.2-4.6-10.2-10.2S6.8,2.2,12.5,2.2s10.2,4.6,10.2,10.2-4.6,10.2-10.2,10.2Z"/><path class="d" d="M12.5,2.5c5.5,0,10,4.5,10,10s-4.5,10-10,10S2.5,18,2.5,12.5,7,2.5,12.5,2.5M12.5,2C6.7,2,2,6.7,2,12.5s4.7,10.5,10.5,10.5,10.5-4.7,10.5-10.5S18.3,2,12.5,2h0Z"/><g id="b"><path id="c" class="h" d="M13,8s-.2,0-.4,0c-.3,0-.7,0-.8,0,0,0,0,0-.2,0-.5,0-1.2.3-1.6.5,0,0-.1,0-.2,0,0,0-.7.4-.9.6-1.6,1.3-2.4,3.3-2,4.9,0,.2,0,.2.2,0,.2-.2.4-.3.7-.5.2,0,.9-.4.9-.4s0,0,.1,0c.6-.3,2.4-.9,3.3-1.1,0,0,.2,0,.3,0,.9-.2,1-.3,1-.2s0,0-.1,0c-.3.1-1.1.4-1.1.5,0,0,0,0,0,0s0,0-.2,0-.1,0-.1,0,0,0-.2,0-.2,0-.2,0,0,0-.2,0-.2,0-.2,0c0,0-2.1,1.1-2.7,1.4-.1,0-.3.2-.3.2,0,0-.2.1-.8.5-.7.4-1.9,1.3-2.6,1.8,0,0-.2.1-.2.2-.6.5-.7.6-.4.4.8-.4,1.7-.8,2.3-1.1.4-.2.8-.3,1.1-.3h.1s.3.3.3.3c.8.8,1.6,1.1,2.8,1.3.3,0,1.2,0,1.4,0,0,0,.2,0,.3,0,.1,0,.2,0,.3,0s.1,0,.2,0c1.4-.4,2.6-1.2,3.6-2.6,0,0,.1-.2.2-.3,0-.1.2-.2.2-.3,0,0,0-.1.1-.2.5-.8,1.3-2,1.8-3,0-.1.1-.3.2-.4s.2-.4.4-.8c.2-.3.3-.6.3-.6,0,0,0-.1-.2-.2,0,0-.2,0-.3-.1-.2,0-.4-.1-.4-.1-.3,0-.7-.2-1.3-.4-.5-.1-.6-.2-.8-.2,0,0-.2,0-.2,0s-.1,0-.2,0c-.2,0-.3,0-.5,0-.7-.1-1.3-.2-2.2-.2-.4,0-.8,0-.8,0"/></g></svg>